:SAMPLES-PER-SECOND 30
:FULLY-SPECIFIED
:DEGREES
32
root  34.5493 39.3796 0.835598 -178.337 -81.7478 174.735
RightUpLeg  -21.0645 -14.8305 -0.387826
RightLeg  27.6858 -4.79719 -3.00557
RightFoot  -3.23383 -0.590078 8.00355
RightToes  0.000482159 0.542163 -0.142577
Spine  11.1806 0.306947 -2.03025
Spine1  8.77509 -0.255129 0.726652
HEad  -3.19359 6.3352 -2.57629
LeftShoulder1  4.65189 -6.969 -38.2052
LeftArm  -18.5094 25.0106 -44.6081
LeftForeArm  38.6765 -10.6775 -3.12585
LeftHand  -0.25398 0.0180481 5.50724
RightShoulder  3.49666 5.80165 31.625
RightArm  -6.72009 -26.4207 47.5648
RightForeArm  20.2802 18.7342 4.257
RightHand  -0.369105 -1.58021 -11.0106
LeftUpLeg  6.97355 8.44241 -1.02895
LeftLeg  14.3168 18.7634 0.135064
LeftFoot  -19.1114 0.014712 -1.4659
LeftToes  1.06244e-005 4.65856e-005 -8.18505e-006
33
root  33.7476 39.2817 0.858056 -179.004 -82.1033 175.729
RightUpLeg  -21.4193 -18.3868 1.96158
RightLeg  19.9148 -3.58859 -1.59111
RightFoot  -2.99064 -0.593556 7.8345
RightToes  0.000482159 0.542163 -0.142577
Spine  11.057 0.113105 -2.08913
Spine1  9.34162 -0.552854 1.12392
HEad  -3.89272 6.14921 -2.5856
LeftShoulder1  4.89324 -7.34468 -38.8694
LeftArm  -16.9187 24.1663 -43.3392
LeftForeArm  39.7439 -10.7078 -3.51967
LeftHand  -0.25398 0.0180481 5.50724
RightShoulder  3.62888 6.06827 31.9628
RightArm  -5.18935 -27.6655 48.2223
RightForeArm  22.9451 18.5928 4.26517
RightHand  -0.342943 -1.45961 -9.91048
LeftUpLeg  8.20655 8.05855 -0.882565
LeftLeg  13.7867 18.7563 -0.228815
LeftFoot  -19.8493 -0.017669 -1.84352
LeftToes  1.06244e-005 4.65856e-005 -8.18505e-006
34
root  32.8647 39.1463 0.86165 -178.081 -82.7186 175.117
RightUpLeg  -21.2804 -18.8673 2.46901
RightLeg  12.773 -4.53025 0.65391
RightFoot  -2.52899 -0.6526 8.22977
RightToes  0.000482159 0.542163 -0.142577
Spine  10.8389 -0.156521 -2.07169
Spine1  9.90849 -0.867852 1.27565
HEad  -4.43515 5.68997 -2.50748
LeftShoulder1  5.09909 -7.69637 -39.2764
LeftArm  -15.2306 22.8794 -41.574
LeftForeArm  40.4032 -10.6519 -3.91847
LeftHand  -0.25398 0.0180481 5.50724
RightShoulder  3.73251 6.27628 32.2181
RightArm  -4.1203 -28.4519 48.2775
RightForeArm  24.5794 18.3081 4.33612
RightHand  -0.356688 -1.09125 -9.4733
LeftUpLeg  9.54925 7.81974 -0.866816
LeftLeg  13.2729 18.6717 -0.598317
LeftFoot  -20.4615 0.0162898 -1.33995
LeftToes  1.06244e-005 4.65856e-005 -8.18505e-006
35
root  31.9092 38.983 0.857003 -176.475 -83.4496 173.699
RightUpLeg  -20.3256 -11.6925 -0.568283
RightLeg  7.07408 -12.4155 3.72496
RightFoot  -2.11105 -0.658313 7.95512
RightToes  0.000482159 0.542163 -0.142577
Spine  10.7794 -0.429699 -1.86768
Spine1  10.3376 -1.16509 1.34471
HEad  -4.77731 5.25173 -2.51642
LeftShoulder1  5.24752 -7.96586 -39.4932
LeftArm  -14.0298 21.3361 -39.7073
LeftForeArm  40.7187 -10.6907 -4.16084
LeftHand  -0.25398 0.0180481 5.50724
RightShoulder  3.77484 6.37907 32.2498
RightArm  -3.63458 -28.6035 47.8329
RightForeArm  24.661 17.628 4.5644
RightHand  -0.378153 -1.00022 -9.86498
LeftUpLeg  11.1865 7.58502 -0.874849
LeftLeg  12.6586 18.4061 -0.942002
LeftFoot  -21.1289 0.0455812 -0.941198
LeftToes  1.06244e-005 4.65856e-005 -8.18505e-006
36
root  30.8808 38.8075 0.834427 -175.45 -84.3603 172.722
RightUpLeg  -20.3302 -7.85997 -1.83353
RightLeg  4.2064 -15.1747 4.98568
RightFoot  -1.13653 -0.574771 6.36376
RightToes  0.000482159 0.542163 -0.142577
Spine  10.9379 -0.707531 -1.43441
Spine1  10.5958 -1.51271 1.58105
HEad  -5.12424 5.0698 -2.69081
LeftShoulder1  5.37128 -8.20462 -39.6141
LeftArm  -13.482 19.8632 -37.9475
LeftForeArm  40.4264 -11.2414 -4.17932
LeftHand  -0.25398 0.0180481 5.50724
RightShoulder  3.77383 6.42883 32.0477
RightArm  -3.99144 -28.1653 46.9618
RightForeArm  24.3491 16.6005 4.85894
RightHand  -0.396581 -1.11226 -10.6088
LeftUpLeg  13.1563 7.55627 -0.559109
LeftLeg  11.9692 17.1758 -1.31107
LeftFoot  -21.9027 -0.0403074 -1.85236
LeftToes  1.06244e-005 4.65856e-005 -8.18505e-006
37
root  29.7662 38.6522 0.778188 -178.758 -85.636 176.115
RightUpLeg  -21.0838 -7.63044 -1.24413
RightLeg  5.21928 -13.6394 4.45654
RightFoot  1.23863 -0.362418 3.41855
RightToes  0.000482159 0.542163 -0.142577
Spine  11.0936 -1.07897 -0.574255
Spine1  10.6863 -2.00505 2.06833
HEad  -5.3693 4.62066 -2.84107
LeftShoulder1  5.46574 -8.40638 -39.6321
LeftArm  -13.4592 18.6292 -36.4729
LeftForeArm  38.9403 -12.466 -4.00315
LeftHand  -0.25398 0.0180481 5.50724
RightShoulder  3.75002 6.42915 31.8058
RightArm  -5.39859 -27.22 45.6072
RightForeArm  24.7096 15.2822 5.07278
RightHand  -0.411785 -1.17746 -11.184
LeftUpLeg  15.0189 8.22347 0.536948
LeftLeg  11.7964 14.6934 -1.33342
LeftFoot  -22.3184 -0.177109 -3.24046
LeftToes  1.06244e-005 4.65856e-005 -8.18505e-006
